<?xml version="1.0" standalone="no"?>
<!DOCTYPE svg PUBLIC "-//W3C//DTD SVG 20010904//EN"
 "http://www.w3.org/TR/2001/REC-SVG-20010904/DTD/svg10.dtd">
<svg version="1.0" xmlns="http://www.w3.org/2000/svg"
 width="900.000000pt" height="900.000000pt" viewBox="0 0 900.000000 900.000000"
 preserveAspectRatio="xMidYMid meet">
<metadata>
Created by potrace 1.14, written by Peter Selinger 2001-2017
</metadata>
<g transform="translate(0.000000,900.000000) scale(0.100000,-0.100000)"
fill="#000000" stroke="none">
<path d="M4118 8245 c-2 -2 -49 -6 -106 -10 -57 -3 -111 -8 -121 -10 -9 -2
-48 -6 -86 -9 -105 -10 -397 -61 -542 -96 -824 -196 -1561 -591 -2102 -1129
-157 -156 -228 -234 -374 -411 -7 -8 -45 -60 -84 -115 -40 -55 -76 -104 -81
-110 -11 -14 -89 -140 -125 -200 -76 -130 -195 -375 -231 -478 -8 -23 -24 -67
-36 -97 -12 -30 -23 -62 -25 -70 -2 -8 -13 -44 -24 -80 -20 -66 -55 -201 -66
-255 -21 -108 -46 -255 -51 -308 -3 -34 -7 -73 -9 -86 -7 -39 -17 -268 -17
-371 -1 -209 23 -469 59 -635 2 -11 7 -33 9 -50 10 -56 73 -280 105 -370 78
-226 214 -529 301 -673 21 -34 38 -67 38 -72 0 -6 5 -10 10 -10 6 0 10 -5 10
-11 0 -28 204 -304 339 -459 82 -94 329 -342 439 -441 149 -134 438 -338 650
-461 185 -107 510 -259 706 -330 188 -68 420 -137 546 -163 8 -2 42 -10 75
-18 33 -9 78 -18 100 -22 22 -3 72 -12 110 -20 39 -7 97 -17 130 -21 33 -3 63
-8 67 -10 4 -3 42 -7 85 -10 42 -3 81 -8 86 -11 23 -14 644 -22 827 -10 191
12 411 45 655 97 157 34 153 33 250 57 l70 18 1 958 c0 675 -3 956 -10 953 -6
-2 -58 -26 -116 -52 -285 -127 -539 -194 -840 -221 -166 -15 -547 -8 -652 12
-12 3 -40 7 -63 10 -51 8 -243 50 -315 71 -69 19 -72 20 -90 26 -8 3 -44 16
-80 28 -137 47 -283 115 -445 204 -171 95 -415 306 -561 486 -310 381 -455
772 -441 1190 3 85 7 166 10 180 2 14 8 45 11 70 4 25 9 53 12 62 3 9 7 26 9
38 30 158 130 401 228 560 44 71 149 212 182 246 11 11 36 38 56 60 60 67 172
168 255 231 77 59 241 173 248 173 2 0 33 18 69 40 178 108 631 260 852 286
11 1 95 13 135 20 137 22 584 21 653 -1 6 -2 35 -6 63 -9 46 -5 164 -27 222
-41 12 -3 30 -7 40 -9 159 -37 507 -162 547 -198 5 -4 13 -8 17 -8 4 0 8 430
8 955 l0 955 -33 13 c-28 12 -173 48 -347 87 -54 12 -255 42 -362 55 -27 3
-67 7 -90 10 -24 3 -77 8 -118 11 -85 6 -637 14 -642 9z"/>
<path d="M5770 5880 l-36 -5 0 -662 0 -663 897 0 c893 0 896 0 920 21 33 29
113 102 179 163 30 28 100 92 155 141 55 50 109 99 121 110 11 11 63 58 114
105 51 47 98 90 104 95 6 6 85 77 176 160 91 82 187 170 214 195 27 25 54 50
60 55 51 46 230 208 266 242 l45 43 -35 1 c-162 3 -3153 3 -3180 -1z"/>
<path d="M5735 3625 c0 -445 3 -665 10 -666 5 -1 736 -2 1623 -3 l1613 -1 -58
55 c-109 103 -190 176 -478 439 -38 36 -97 90 -130 120 -33 31 -112 103 -175
161 -63 58 -135 124 -160 146 -68 63 -98 91 -206 189 -108 100 -107 98 -187
173 l-56 52 -898 0 -898 0 0 -665z"/>
</g>
</svg>
